<svg xmlns="http://www.w3.org/2000/svg" width="48" height="48">
<path fill="#4285F4" d="M24 9.5c3.2 0 5.3 1.4 6.5 2.6l4.7-4.7C32.3 3.8 28.5 2 24 2 14.8 2 7.3 8.5 5.2 17h6.6C13.5 12.4 18.3 9.5 24 9.5z"/>
<path fill="#34A853" d="M46.1 24.5c0-1.6-.2-3.3-.5-4.8H24v9.1h12.6c-.5 2.6-2 4.8-4.2 6.3v5.2h6.8c4 3.7 9.1 6 15 6 7.2 0 13.6-2.8 18-7.3l-6.3-6.3c-3.3 3.2-7.8 5.1-12.7 5.1-4.8 0-9.2-1.8-12.7-5.1-3.5-3.5-5.3-8-5.3-12.7s1.9-9.2 5.3-12.7 7.9-5.3 12.7-5.3c4.9 0 9.4 1.9 12.7 5.1l6.3-6.3C47.1 7.4 41.1 5 34.1 5c-5.9 0-11 2.3-15.1 6.4C14.9 14.6 12 20.4 12 26.8s2.9 12.2 7 16.4C22.2 47.4 28.3 50 34.1 50c6.9 0 13.1-2.7 17.7-7.1L46.1 37c-3.2 3.1-7.4 5-12 5-4.5 0-8.7-1.8-12-5.1C18 34.6 16 30.4 16 26.1c0-4.3 1.9-8.4 5-11.5C25.5 10.7 29.7 9 34 9c4.3 0 7.9 1.6 10.9 4.6l6.1-6.1C46.7 3.3 40.6 1 34 1 25.6 1 18.1 5 13.5 11.6 8.8 18.3 6 26.8 6 36.1s2.9 17.9 7.6 24.6C18.1 66.2 25.6 70 34 70c9.3 0 17.7-3.7 24-10.2l6.4 6.4C56.9 73.6 45.9 78 34 78c-12.3 0-23.3-5-31.1-13.1S-9 50.9-9 38.9c0-12.1 5-23.2 13.9-31.1C13 0 24.1-4 37.5-4 50.9-4 62.1 0 70 7.9l-6.4 6.4C56.8 10 46.2 6 35.5 6 24.8 6 14.9 9.8 7.9 16.8S-1 33.5-1 44.2c0 10.7 4 20.4 11.1 27.5S27.8 86 38.5 86c10.7 0 20.5-4 27.5-11.1S77 57.8 77 47.1c0-10.7-4-20.4-11.1-27.5C59.9 12.6 50.2 8.5 39.5 8.5c-7.6 0-15 2.7-20.9 7.9L12 3.1A34.4 34.4 0 0 1 39.5-3c9.3 0 17.8 3.6 24.3 10.1L46.1 24.5z"/>
</svg>
